<svg id="visual" viewBox="0 0 900 600" width="900" height="600" xmlns="http://www.w3.org/2000/svg" xmlns:xlink="http://www.w3.org/1999/xlink" version="1.1"><rect x="0" y="0" width="900" height="600" fill="#ffffff"></rect><defs><linearGradient id="grad1_0" x1="33.3%" y1="100%" x2="100%" y2="0%"><stop offset="20%" stop-color="#3498db" stop-opacity="1"></stop><stop offset="80%" stop-color="#3498db" stop-opacity="1"></stop></linearGradient></defs><defs><linearGradient id="grad1_1" x1="33.3%" y1="100%" x2="100%" y2="0%"><stop offset="20%" stop-color="#3498db" stop-opacity="1"></stop><stop offset="80%" stop-color="#ffffff" stop-opacity="1"></stop></linearGradient></defs><defs><linearGradient id="grad2_0" x1="0%" y1="100%" x2="66.7%" y2="0%"><stop offset="20%" stop-color="#3498db" stop-opacity="1"></stop><stop offset="80%" stop-color="#3498db" stop-opacity="1"></stop></linearGradient></defs><defs><linearGradient id="grad2_1" x1="0%" y1="100%" x2="66.7%" y2="0%"><stop offset="20%" stop-color="#ffffff" stop-opacity="1"></stop><stop offset="80%" stop-color="#3498db" stop-opacity="1"></stop></linearGradient></defs><g transform="translate(900, 600)"><path d="M-324.5 0C-310.9 -53.5 -297.3 -106.9 -271.9 -157C-246.6 -207.1 -209.5 -253.7 -162.2 -281C-115 -308.4 -57.5 -316.4 0 -324.5L0 0Z" fill="#a9caed"></path><path d="M-162.2 0C-155.4 -26.7 -148.6 -53.5 -136 -78.5C-123.3 -103.5 -104.8 -126.8 -81.1 -140.5C-57.5 -154.2 -28.7 -158.2 0 -162.2L0 0Z" fill="#3498db"></path></g><g transform="translate(0, 0)"><path d="M324.5 0C306.3 50.8 288 101.6 263.3 152C238.5 202.4 207.2 252.3 162.2 281C117.3 309.7 58.6 317.1 0 324.5L0 0Z" fill="#a9caed"></path><path d="M162.2 0C153.1 25.4 144 50.8 131.6 76C119.3 101.2 103.6 126.2 81.1 140.5C58.6 154.9 29.3 158.6 0 162.2L0 0Z" fill="#3498db"></path></g></svg>